<svg xmlns="http://www.w3.org/2000/svg" viewBox="0 0 200 200" width="200" height="200">
  <!-- Circle -->
  <circle cx="100" cy="100" r="92" fill="none" stroke="#1a1a1a" stroke-width="4"/>

  <!-- Trunk -->
  <path d="M 92 160 Q 90 140 92 120 Q 93 105 96 95 Q 98 88 100 78
           Q 102 88 104 95 Q 107 105 108 120 Q 110 140 108 160"
        fill="#1a1a1a"/>

  <!-- Roots -->
  <path d="M 92 158 Q 82 162 70 160" fill="none" stroke="#1a1a1a" stroke-width="3.5" stroke-linecap="round"/>
  <path d="M 88 160 Q 80 168 68 170" fill="none" stroke="#1a1a1a" stroke-width="2.5" stroke-linecap="round"/>
  <path d="M 108 158 Q 118 162 130 160" fill="none" stroke="#1a1a1a" stroke-width="3.5" stroke-linecap="round"/>
  <path d="M 112 160 Q 120 168 132 170" fill="none" stroke="#1a1a1a" stroke-width="2.5" stroke-linecap="round"/>

  <!-- Left main branch -->
  <path d="M 96 90 Q 80 72 60 55 Q 50 46 38 38"
        fill="none" stroke="#1a1a1a" stroke-width="5" stroke-linecap="round"/>
  <path d="M 60 55 Q 48 58 36 54"
        fill="none" stroke="#1a1a1a" stroke-width="2.5" stroke-linecap="round"/>
  <path d="M 70 65 Q 58 70 46 68"
        fill="none" stroke="#1a1a1a" stroke-width="2" stroke-linecap="round"/>
  <path d="M 38 38 Q 30 28 24 20"
        fill="none" stroke="#1a1a1a" stroke-width="2" stroke-linecap="round"/>
  <path d="M 38 38 Q 42 28 44 18"
        fill="none" stroke="#1a1a1a" stroke-width="2" stroke-linecap="round"/>

  <!-- Left secondary -->
  <path d="M 94 82 Q 78 68 64 48 Q 56 38 48 24"
        fill="none" stroke="#1a1a1a" stroke-width="3" stroke-linecap="round"/>
  <path d="M 64 48 Q 54 44 44 40"
        fill="none" stroke="#1a1a1a" stroke-width="1.5" stroke-linecap="round"/>
  <path d="M 48 24 Q 42 16 36 12"
        fill="none" stroke="#1a1a1a" stroke-width="1.5" stroke-linecap="round"/>

  <!-- Right main branch -->
  <path d="M 104 90 Q 120 72 140 55 Q 150 46 162 38"
        fill="none" stroke="#1a1a1a" stroke-width="5" stroke-linecap="round"/>
  <path d="M 140 55 Q 152 58 164 54"
        fill="none" stroke="#1a1a1a" stroke-width="2.5" stroke-linecap="round"/>
  <path d="M 130 65 Q 142 70 154 68"
        fill="none" stroke="#1a1a1a" stroke-width="2" stroke-linecap="round"/>
  <path d="M 162 38 Q 170 28 176 20"
        fill="none" stroke="#1a1a1a" stroke-width="2" stroke-linecap="round"/>
  <path d="M 162 38 Q 158 28 156 18"
        fill="none" stroke="#1a1a1a" stroke-width="2" stroke-linecap="round"/>

  <!-- Right secondary -->
  <path d="M 106 82 Q 122 68 136 48 Q 144 38 152 24"
        fill="none" stroke="#1a1a1a" stroke-width="3" stroke-linecap="round"/>
  <path d="M 136 48 Q 146 44 156 40"
        fill="none" stroke="#1a1a1a" stroke-width="1.5" stroke-linecap="round"/>
  <path d="M 152 24 Q 158 16 164 12"
        fill="none" stroke="#1a1a1a" stroke-width="1.5" stroke-linecap="round"/>

  <!-- Center top branches -->
  <path d="M 100 78 Q 94 58 86 38 Q 82 28 76 18"
        fill="none" stroke="#1a1a1a" stroke-width="3.5" stroke-linecap="round"/>
  <path d="M 86 38 Q 78 34 70 30"
        fill="none" stroke="#1a1a1a" stroke-width="1.5" stroke-linecap="round"/>
  <path d="M 76 18 Q 72 12 68 10"
        fill="none" stroke="#1a1a1a" stroke-width="1.5" stroke-linecap="round"/>

  <path d="M 100 78 Q 106 58 114 38 Q 118 28 124 18"
        fill="none" stroke="#1a1a1a" stroke-width="3.5" stroke-linecap="round"/>
  <path d="M 114 38 Q 122 34 130 30"
        fill="none" stroke="#1a1a1a" stroke-width="1.5" stroke-linecap="round"/>
  <path d="M 124 18 Q 128 12 132 10"
        fill="none" stroke="#1a1a1a" stroke-width="1.5" stroke-linecap="round"/>

  <!-- Crown top -->
  <path d="M 100 78 Q 98 60 96 42 Q 95 30 94 18"
        fill="none" stroke="#1a1a1a" stroke-width="2.5" stroke-linecap="round"/>
  <path d="M 100 78 Q 102 60 104 42 Q 105 30 106 18"
        fill="none" stroke="#1a1a1a" stroke-width="2.5" stroke-linecap="round"/>
</svg>
